Coordinates
version=1
nRows=8
nColumns=63
inDegrees=yes

Units are S.I. units (second, meters, Newtons, ...)
If the header above contains a line with 'inDegrees', this indicates whether rotational values are in degrees (yes) or radians (no).

endheader
time	pelvis_tilt	pelvis_list	pelvis_rotation	pelvis_tx	pelvis_ty	pelvis_tz	hip_flexion_r	hip_adduction_r	hip_rotation_r	knee_angle_r	knee_angle_r_beta	ankle_angle_r	subtalar_angle_r	mtp_angle_r	hip_flexion_l	hip_adduction_l	hip_rotation_l	knee_angle_l	knee_angle_l_beta	ankle_angle_l	subtalar_angle_l	mtp_angle_l	L5_S1_Flex_Ext	L5_S1_Lat_Bending	L5_S1_axial_rotation	L4_L5_Flex_Ext	L4_L5_Lat_Bending	L4_L5_axial_rotation	L3_L4_Flex_Ext	L3_L4_Lat_Bending	L3_L4_axial_rotation	L2_L3_Flex_Ext	L2_L3_Lat_Bending	L2_L3_axial_rotation	L1_L2_Flex_Ext	L1_L2_Lat_Bending	L1_L2_axial_rotation	L1_T12_Flex_Ext	L1_T12_Lat_Bending	L1_T12_axial_rotation	Abs_r3	Abs_r2	Abs_r1	Abs_t1	Abs_t2	neck_flexion	neck_bending	neck_rotation	arm_flex_r	arm_add_r	arm_rot_r	elbow_flex_r	pro_sup_r	wrist_flex_r	wrist_dev_r	arm_flex_l	arm_add_l	arm_rot_l	elbow_flex_l	pro_sup_l	wrist_flex_l	wrist_dev_l
5.609756	-4.803652	-6.134573	85.260536	0.217712	0.368872	0.922741	2.521218	-2.442789	-5.614396	6.402477	0.111744	22.206838	-7.219079	0.000000	6.670784	1.013642	0.570800	8.495475	0.148274	29.533552	10.555767	0.000000	-0.035106	-0.362917	-1.317102	-0.065195	-0.482680	-1.399421	-0.057675	-0.882397	-1.399421	-0.040122	-0.882397	-1.152464	-0.032599	-0.740061	-1.070146	-0.020059	-0.562159	-0.987827	-0.250755	-4.105392	-7.325328	0.000000	0.000000	5.379586	-3.220677	-4.113163	-18.212581	-14.070303	-17.400452	109.385583	78.926579	-0.524141	15.922586	-11.100367	-23.131774	5.359848	117.685472	87.849969	-11.278845	6.776348
5.634146	-4.522458	-6.168704	85.745318	0.217112	0.368247	0.923178	2.524616	-2.154070	-5.981661	6.516307	0.113731	22.259007	-7.524480	0.000000	6.961485	0.696631	0.034307	8.913511	0.155570	30.153886	11.826077	0.000000	-0.028340	-0.347062	-1.333459	-0.052630	-0.461593	-1.416800	-0.046559	-0.843847	-1.416800	-0.032390	-0.843847	-1.166777	-0.026316	-0.707730	-1.083435	-0.016193	-0.537600	-1.000094	-0.202428	-3.926039	-7.416299	0.000000	0.000000	6.256612	-4.003285	-4.826441	-17.235305	-14.714928	-15.937030	105.633697	78.108316	0.089829	15.932792	-9.255718	-23.254380	8.304135	113.890148	87.905342	-11.567063	7.258285
5.658537	-4.283638	-6.210197	86.263042	0.216498	0.367672	0.923714	2.537988	-1.915975	-6.490454	6.646659	0.116006	22.316194	-7.743266	0.000000	7.278556	0.423936	-0.415674	9.370178	0.163540	30.631183	13.001596	0.000000	-0.021426	-0.340703	-1.334124	-0.039790	-0.453135	-1.417507	-0.035201	-0.828385	-1.417507	-0.024488	-0.828385	-1.167359	-0.019896	-0.694761	-1.083976	-0.012243	-0.527749	-1.000593	-0.153043	-3.854099	-7.419999	0.000000	0.000000	7.071528	-4.599035	-5.826546	-16.202344	-15.244837	-14.924092	102.494306	77.567141	-0.101590	15.140956	-7.078692	-23.372105	11.182474	110.224833	87.961011	-11.893380	7.420279
5.682927	-4.110748	-6.289373	86.727866	0.215963	0.366976	0.924292	2.620072	-1.749242	-7.068460	6.827768	0.119167	22.427125	-7.849255	0.000000	7.635004	0.215979	-0.731658	9.854395	0.171992	30.951766	13.909467	0.000000	-0.012445	-0.342290	-1.305969	-0.023112	-0.455246	-1.387592	-0.020446	-0.832244	-1.387592	-0.014223	-0.832244	-1.142723	-0.011556	-0.697998	-1.061100	-0.007111	-0.530207	-0.979477	-0.088893	-3.872055	-7.263407	0.000000	0.000000	7.898880	-5.049230	-7.002484	-15.295021	-15.594347	-14.264762	100.172507	77.445609	-0.880903	14.203569	-4.717098	-23.476421	14.015280	106.790638	88.059048	-12.321980	7.480770
5.707317	-3.978253	-6.392250	87.137706	0.215406	0.366189	0.924959	2.762370	-1.632648	-7.655915	7.059538	0.123212	22.577860	-7.901063	0.000000	8.013915	0.062414	-0.849806	10.364521	0.180895	31.106954	14.455921	0.000000	-0.003904	-0.344511	-1.243233	-0.007250	-0.458200	-1.320935	-0.006414	-0.837645	-1.320935	-0.004462	-0.837645	-1.087829	-0.003625	-0.702527	-1.010126	-0.002231	-0.533648	-0.932424	-0.027885	-3.897180	-6.914487	0.000000	0.000000	8.712917	-5.398085	-8.239779	-14.545534	-15.758553	-14.134255	98.757330	77.713043	-1.475525	14.286573	-2.171620	-23.514966	16.852460	103.405486	88.224782	-12.633215	7.176952
5.731707	-3.891155	-6.490739	87.476338	0.214840	0.365442	0.925729	2.941384	-1.576152	-8.238106	7.335076	0.128021	22.765162	-7.848907	0.000000	8.378777	-0.026395	-0.775557	10.880520	0.189901	31.077395	14.610322	0.000000	0.001192	-0.348832	-1.160332	0.002213	-0.463947	-1.232852	0.001958	-0.848150	-1.232852	0.001362	-0.848150	-1.015290	0.001107	-0.711338	-0.942769	0.000681	-0.540341	-0.870249	0.008513	-3.946057	-6.453416	0.000000	0.000000	9.458619	-5.620021	-9.444586	-13.804519	-15.832943	-14.194962	97.910748	78.322227	-2.070648	14.881289	0.464513	-23.507984	19.623206	100.100958	88.448776	-12.837377	6.659236
5.756098	-3.829961	-6.582932	87.717192	0.214282	0.364753	0.926536	3.158476	-1.561027	-8.769937	7.656762	0.133636	23.000755	-7.693700	0.000000	8.694590	-0.069136	-0.480078	11.338383	0.197892	30.903101	14.370024	0.000000	0.003457	-0.351454	-1.070311	0.006419	-0.467434	-1.137205	0.005679	-0.854526	-1.137205	0.003951	-0.854526	-0.936522	0.003210	-0.716686	-0.869628	0.001975	-0.544403	-0.802733	0.024690	-3.975722	-5.952749	0.000000	0.000000	10.139187	-5.798006	-10.503832	-12.965314	-15.899463	-14.261481	97.413433	79.117441	-2.688383	15.641026	3.012789	-23.462440	22.226594	97.000959	88.750624	-12.988474	6.088349
5.780488	-3.781568	-6.660509	87.863042	0.213678	0.364160	0.927276	3.388578	-1.575256	-9.225420	8.003277	0.139684	23.252424	-7.466281	0.000000	8.928784	-0.073012	0.025341	11.689127	0.204014	30.624563	13.756942	0.000000	0.004122	-0.349891	-0.984390	0.007655	-0.465356	-1.045914	0.006772	-0.850726	-1.045914	0.004711	-0.850726	-0.861341	0.003828	-0.713499	-0.799817	0.002355	-0.541982	-0.738292	0.029445	-3.958042	-5.474881	0.000000	0.000000	10.685751	-5.936914	-11.364853	-11.994751	-15.998872	-14.214679	97.061833	79.974907	-3.298278	16.294682	5.292652	-23.321604	24.551922	94.166885	89.016919	-13.067328	5.694716
